<?xml version="1.0" standalone="no"?>
<!DOCTYPE svg PUBLIC "-//W3C//DTD SVG 20010904//EN"
 "http://www.w3.org/TR/2001/REC-SVG-20010904/DTD/svg10.dtd">
<svg version="1.0" xmlns="http://www.w3.org/2000/svg"
 width="16.000000pt" height="16.000000pt" viewBox="0 0 16.000000 16.000000"
 preserveAspectRatio="xMidYMid meet">

<g transform="translate(0.000000,16.000000) scale(0.100000,-0.100000)"
fill="#000000" stroke="none">
<path d="M35 125 c-32 -31 -32 -59 0 -90 31 -32 59 -32 90 0 32 31 32 59 0 90
-31 32 -59 32 -90 0z m75 -14 c0 -11 -5 -23 -10 -26 -15 -10 -12 -25 6 -25 27
0 9 -25 -20 -28 -41 -5 -53 11 -32 42 14 23 14 26 1 26 -8 0 -15 7 -15 15 0
10 11 15 35 15 28 0 35 -4 35 -19z"/>
</g>
</svg>
