<?xml version="1.0" encoding="utf-8"?>
<!-- Generator: Adobe Illustrator 25.2.1, SVG Export Plug-In . SVG Version: 6.00 Build 0)  -->
<svg version="1.1" id="Layer_1" xmlns:serif="http://www.serif.com/"
	 xmlns="http://www.w3.org/2000/svg" xmlns:xlink="http://www.w3.org/1999/xlink" x="0px" y="0px" viewBox="0 0 54 54"
	 style="enable-background:new 0 0 54 54;" xml:space="preserve">
<style type="text/css">
	.st0{fill:#FFFFFF;}
</style>
<path class="st0" d="M49.6,18.4c0,0-2-0.9-4-0.3c-1.5,0.4-3.2,1.6-4.1,4c-1.8,4.6-0.2,12.6-0.9,12.6c-0.6,0-2.6-7.4-5.2-15
	C32.8,12,30.6,4,26.5,4.6c-3.6,0.6-2.5,9.7-1.1,18.2c1.3,7.7,2.8,14.9,1.9,14.9c-1.5,0-6.5-21.3-11.6-20.5
	c-5.1,0.8,1.5,24.3,0.1,24.4c-1.1,0-3.9-14.3-8-13.7c-3.1,0.5-0.3,11.7-0.2,14.8c0,0.8,0.3,2.2-0.9,2.2H4.4v2.2h3.8
	c0.8,0,1.4-0.3,1.7-1.1c1.1-2.6-1.7-13.7-1.1-13.8c0.4-0.1,1.4,3.3,2.8,7.1c1.3,3.8,2.7,7.8,5.2,7.8c5.5,0-0.1-21.6,1-21.6
	c0.6,0,2.2,4.4,3.9,9.2c2.1,5.9,4.7,12.4,7.8,12.4c3.7,0,2.5-8.4,1.4-16.5c-1-7-2.2-13.5-1.5-13.5c1.4,0,6.7,30,13.1,30
	c3.2,0,3.2-6.3,3.2-13c0-4.8-0.4-9.1,2.6-10.1c1.4-0.5,2.9,0.4,2.9,0.4S49.6,18.4,49.6,18.4z"/>
</svg>
