<?xml version="1.0" encoding="utf-8"?>
<!-- Generator: Adobe Illustrator 25.2.1, SVG Export Plug-In . SVG Version: 6.00 Build 0)  -->
<svg version="1.1" id="regular" xmlns="http://www.w3.org/2000/svg" xmlns:xlink="http://www.w3.org/1999/xlink" x="0px" y="0px"
	 viewBox="0 0 512 512" style="enable-background:new 0 0 512 512;" xml:space="preserve">
<path d="M495.2,174.4c0,0-21.5-10.2-43.7-3.6c-16.7,4.9-34.9,17.5-45.3,43.8c-20,50.3-2.7,138-9.5,138c-6.8,0-28.1-80.8-56.7-165
	C311.4,103.4,286.7,16,242.1,23.1c-39.6,6.2-27.3,105.9-11.8,199.3c14,84.6,30.3,163.8,21,163.8c-16.6,0-71-233.9-126.7-225
	c-55.7,8.9,16.1,266.6,1,267.1c-12.4,0.4-42.8-156.9-87.9-149.7c-34.2,5.5-3.7,127.8-2.3,162c0.3,8.6,3,24.6-9.8,24.6H0V489h41.8
	c8.6-0.4,15.4-3.7,18.8-12.1C72.2,448.3,41.7,327,48.8,326.1c4.9-0.6,15.5,36.3,30.2,78.1c14.7,41.8,29.5,85.1,57.5,85.1
	c60.4,0-1.2-236.7,10.8-236.7c6.3,0,23.6,48.1,42.6,100.8c23.2,64.5,51.5,135.9,85.7,135.9c40.8,0,27.5-92.3,14.9-180.8
	C279.5,232,266.7,160,273.5,160c15.4,0,73.5,329.2,143.4,329.2c35,0,35.4-68.8,35.4-143c0-52.1-4.4-99.6,28.4-111
	c15.6-5.4,31.3,4.2,31.3,4.2S495.2,174.4,495.2,174.4z"/>
</svg>
