<?xml version="1.0" encoding="utf-8"?>
<!-- Generator: Adobe Illustrator 25.2.1, SVG Export Plug-In . SVG Version: 6.00 Build 0)  -->
<svg version="1.1" id="Layer_1" xmlns="http://www.w3.org/2000/svg" xmlns:xlink="http://www.w3.org/1999/xlink" x="0px" y="0px"
	 viewBox="0 0 512 511" style="enable-background:new 0 0 512 511;" xml:space="preserve">
<style type="text/css">
	.st0{fill:none;stroke:#FFFFFF;stroke-width:20;}
</style>
<g>
	<path class="st0" d="M368.5,150v18c0,7.1-2.6,13.1-7.7,18L202.5,339.2h143.2c6.2,0,11.5,2.2,15.8,6.5c4.3,4.3,6.5,9.6,6.5,15.8
		c0,6.2-2.2,11.5-6.5,15.8c-4.3,4.3-9.6,6.5-15.8,6.5H166.3c-6.4,0-11.8-2.2-16.2-6.5c-4.4-4.3-6.6-9.6-6.6-15.8v-19.1
		c0-6.4,4-13.4,11.9-21.2l155.1-148.9H176.7c-6.2,0-11.5-2.2-15.8-6.6c-4.3-4.4-6.5-9.8-6.5-16.2c0-5.8,2.2-11,6.6-15.5
		c4.4-4.5,9.6-6.8,15.7-6.8h169.6c6.2,0,11.5,2.3,15.8,6.8C366.4,138.5,368.5,143.8,368.5,150z"/>
</g>
<circle class="st0" cx="256" cy="255.5" r="230.8"/>
</svg>
